<svg xmlns="http://www.w3.org/2000/svg" viewBox="0 0 128 128"><rect width="128" height="128" rx="28" fill="#ab9ff2"/><path fill="#fff" d="M110.5 64.6c0 25.7-20.9 46.6-46.6 46.6-7.5 0-13.7-1.8-13.7-7.7 0-2.1.7-4.6 1.8-7.2-8.4-5.9-14.1-15.7-14.1-26.9 0-1.4 1.1-2.5 2.5-2.5 1.4 0 2.5 1.1 2.5 2.5 0 8.6 4.6 16.1 11.5 20.2 4.2-7.4 9.7-14.3 9.7-22.4 0-1.4 1.1-2.5 2.5-2.5s2.5 1.1 2.5 2.5c0 9.8-6.9 18.9-11.5 26.1 1.5.5 3.1.7 4.7.7 8 0 14.5-6.5 14.5-14.5 0-1.4 1.1-2.5 2.5-2.5s2.5 1.1 2.5 2.5c0 7.4-3.4 14.1-8.7 18.4 16.8-3.4 29.5-18.3 29.5-36 0-20.3-16.5-36.8-36.8-36.8s-36.8 16.5-36.8 36.8c0 1.4-1.1 2.5-2.5 2.5s-2.5-1.1-2.5-2.5C24.1 41.1 42.4 22.8 64.9 22.8c25.2 0 45.6 20.4 45.6 41.8z"/></svg>
